M48
;DRILL file {KiCad 4.0.7} date 01/17/19 01:04:38
;FORMAT={-:-/ absolute / inch / decimal}
FMAT,2
INCH,TZ
T1C0.016
T2C0.024
T3C0.028
T4C0.039
T5C0.059
%
G90
G05
M72
T1
X0.1181Y-2.2362
X0.13Y-1.72
X0.38Y-2.75
X0.38Y-3.05
X0.39Y-2.15
X0.5Y-2.311
X0.5Y-2.6
X0.5Y-2.9
X0.5Y-3.2
X0.7913Y-3.7913
X0.8093Y-3.7655
X0.8217Y-3.7365
X0.8247Y-3.7047
X0.9055Y-2.6772
X1.1811Y-0.6004
X1.2913Y-2.5827
X1.2913Y-3.7008
X1.3228Y-2.2441
X1.3307Y-3.252
X1.39Y-3.49
X1.5118Y-3.5906
X1.52Y-2.98
X1.52Y-3.02
X1.52Y-3.06
X1.5561Y-3.2378
X1.5984Y-2.1102
X1.62Y-0.14
X1.62Y-2.95
X1.626Y-2.374
X1.6299Y-2.2677
X1.63Y-0.39
X1.64Y-2.84
X1.68Y-2.84
X1.68Y-3.28
X1.715Y-3.145
X1.7165Y-1.1654
X1.72Y-2.84
X1.75Y-3.01
X1.752Y-3.4488
X1.7564Y-3.48
X1.76Y-2.84
X1.7638Y-3.3307
X1.775Y-3.2715
X1.78Y-2.8
X1.78Y-3.03
X1.7958Y-3.3514
X1.8065Y-3.4762
X1.81Y-2.88
X1.811Y-3.2126
X1.84Y-1.42
X1.84Y-1.58
X1.8527Y-3.4631
X1.8557Y-3.2581
X1.861Y-3.1801
X1.8819Y-3.2756
X1.885Y-3.115
X1.8898Y-0.0984
X1.8898Y-0.8228
X1.9173Y-3.2795
X1.9685Y-3.1732
X1.995Y-3.075
X2.005Y-3.115
X2.01Y-1.14
X2.0177Y-0.6417
X2.0748Y-1.581
X2.1339Y-3.0551
X2.1496Y-1.0472
X2.18Y-1.22
X2.1811Y-3.2756
X2.1969Y-2.1102
X2.2244Y-1.811
X2.2244Y-2.4311
X2.2362Y-3.2598
X2.2835Y-2.3583
X2.3Y-3.56
X2.3Y-3.6
X2.3024Y-0.3575
X2.3819Y-1.2913
X2.4055Y-1.6457
X2.5Y-0.5413
X2.5197Y-2.1732
X2.6142Y-0.2441
X2.6457Y-2.5236
X2.65Y-3.56
X2.65Y-3.6
X2.685Y-3.2205
X2.6969Y-0.5906
X2.7008Y-3.315
X3.1299Y-2.2933
X3.2677Y-0.6772
X3.2756Y-3.5118
X3.3465Y-0.2598
X3.3465Y-0.4882
X3.4567Y-3.748
X3.5039Y-3.6142
X3.54Y-3.48
X3.6614Y-1.2835
X3.73Y-2.51
X3.73Y-2.68
X3.73Y-3.02
X3.7795Y-1.5591
X3.8Y-3.15
X3.8543Y-1.878
X3.9Y-1.13
X3.9055Y-1.063
X3.9291Y-0.1811
X3.9528Y-0.5118
X3.96Y-0.57
X3.9685Y-2.5906
X3.9921Y-0.1811
X3.9921Y-1.7795
X4.0276Y-2.3937
X4.03Y-1.25
X4.0394Y-2.8819
X4.0551Y-2.0374
X4.083Y-2.1932
X4.1535Y-1.9094
X4.2047Y-1.5433
X4.2598Y-1.2913
X4.4252Y-2.4094
X4.4803Y-3.5984
X4.5118Y-1.4882
X4.5197Y-0.5354
X4.52Y-0.5
X4.5354Y-3.0787
X4.563Y-2.2126
X4.6063Y-2.3701
X4.7244Y-2.2126
X4.7638Y-2.9134
X4.7874Y-1.6535
X5.Y-3.2441
X5.1181Y-1.6535
X5.2165Y-2.7362
X5.2992Y-3.5354
X5.3386Y-3.1102
X5.3465Y-3.9449
X5.3566Y-0.8417
X5.3622Y-2.2205
X5.4173Y-2.311
X5.4252Y-2.4803
X5.48Y-0.39
X5.55Y-3.37
X5.587Y-0.6067
X5.6614Y-1.063
X5.6693Y-1.1496
X5.685Y-2.7953
X5.7008Y-0.2126
X5.7165Y-3.5039
X5.7283Y-2.374
X5.7717Y-2.937
X5.7953Y-3.3937
X5.8268Y-3.2913
X5.8504Y-2.2047
X5.8898Y-3.2126
X5.9Y-0.64
X5.9016Y-0.5748
X5.9291Y-2.4016
X6.04Y-3.01
X6.06Y-2.79
X6.0984Y-3.2283
X6.1065Y-0.2283
X6.1417Y-2.6299
X6.185Y-3.8189
X6.2362Y-0.1181
X6.2362Y-3.2283
X6.2598Y-0.937
X6.2677Y-3.0236
X6.3228Y-2.1496
X6.34Y-2.66
X6.4213Y-2.4016
X6.48Y-2.89
X6.5846Y-0.7283
X6.61Y-2.77
X6.622Y-2.3071
X6.6772Y-2.4409
X6.7008Y-1.9134
X6.7323Y-0.5709
X6.9055Y-2.0079
X7.1102Y-2.0079
X7.8031Y-2.5984
T2
X0.13Y-2.02
X0.5787Y-0.7874
X1.01Y-1.5
X3.Y-1.5
X4.1181Y-3.6142
X4.1654Y-1.9764
X4.685Y-3.622
X5.01Y-1.5
X6.3701Y-3.5748
X7.Y-1.5
T3
X3.8426Y-3.3508
X3.8426Y-3.4492
X4.Y-3.3508
X4.Y-3.4492
X4.1574Y-3.3508
X4.1574Y-3.4492
T4
X0.6031Y-1.4
X0.6031Y-2.1
X0.7016Y-1.4
X0.7016Y-2.1
X0.8Y-1.4
X0.8Y-2.1
X0.9031Y-0.7
X0.9031Y-2.8
X0.9031Y-3.5
X1.0016Y-0.7
X1.0016Y-2.8
X1.0016Y-3.5
X1.1Y-0.7
X1.1Y-2.8
X1.1Y-3.5
X1.2031Y-1.4
X1.2031Y-2.1
X1.3016Y-1.4
X1.3016Y-2.1
X1.4Y-1.4
X1.4Y-2.1
X2.385Y-2.965
X2.385Y-3.065
X2.385Y-3.165
X2.385Y-3.265
X2.385Y-3.365
X2.6031Y-1.4
X2.6031Y-2.1
X2.6772Y-3.7795
X2.7016Y-1.4
X2.7016Y-2.1
X2.7772Y-3.7795
X2.8Y-1.4
X2.8Y-2.1
X2.8772Y-3.7795
X2.9031Y-0.7
X2.9031Y-2.8
X2.9031Y-3.5
X3.0016Y-0.7
X3.0016Y-2.8
X3.0016Y-3.5
X3.1Y-0.7
X3.1Y-2.8
X3.1Y-3.5
X3.2031Y-1.4
X3.2031Y-2.1
X3.3016Y-1.4
X3.3016Y-2.1
X3.4Y-1.4
X3.4Y-2.1
X3.9031Y-3.2
X4.0016Y-3.2
X4.1Y-3.2
X4.6031Y-1.4
X4.6031Y-2.1
X4.7016Y-1.4
X4.7016Y-2.1
X4.8Y-1.4
X4.8Y-2.1
X4.9031Y-0.7
X4.9031Y-2.8
X4.9031Y-3.5
X5.0016Y-0.7
X5.0016Y-2.8
X5.0016Y-3.5
X5.1Y-0.7
X5.1Y-2.8
X5.1Y-3.5
X5.2031Y-1.4
X5.2031Y-2.1
X5.3016Y-1.4
X5.3016Y-2.1
X5.4Y-1.4
X5.4Y-2.1
X6.6031Y-1.4
X6.6031Y-2.1
X6.7016Y-1.4
X6.7016Y-2.1
X6.8Y-1.4
X6.8Y-2.1
X6.9031Y-0.7
X6.9031Y-2.8
X6.9031Y-3.5
X7.0016Y-0.7
X7.0016Y-2.8
X7.0016Y-3.5
X7.1Y-0.7
X7.1Y-2.8
X7.1Y-3.5
X7.2031Y-1.4
X7.2031Y-2.1
X7.3016Y-1.4
X7.3016Y-2.1
X7.4Y-1.4
X7.4Y-2.1
T5
X3.7048Y-3.2819
X3.7048Y-3.5181
X4.2952Y-3.2819
X4.2952Y-3.5181
T4
X0.215Y-0.2425G85X0.215Y-0.3213
G05
X0.4394Y-0.1638G85X0.3606Y-0.1638
G05
X0.4394Y-0.4G85X0.3606Y-0.4
G05
T0
M30
