%TF.GenerationSoftware,KiCad,Pcbnew,4.0.7*%
%TF.CreationDate,2019-01-17T01:04:15-05:00*%
%TF.ProjectId,synth_psoc,73796E74685F70736F632E6B69636164,rev?*%
%TF.FileFunction,Soldermask,Bot*%
%FSLAX46Y46*%
G04 Gerber Fmt 4.6, Leading zero omitted, Abs format (unit mm)*
G04 Created by KiCad (PCBNEW 4.0.7) date 01/17/19 01:04:15*
%MOMM*%
%LPD*%
G01*
G04 APERTURE LIST*
%ADD10C,0.150000*%
%ADD11R,1.300000X1.200000*%
%ADD12R,3.000000X2.000000*%
%ADD13R,2.000000X3.000000*%
%ADD14R,2.000000X3.400000*%
%ADD15R,3.400000X2.000000*%
%ADD16R,1.600000X1.600000*%
%ADD17R,4.400000X2.900000*%
%ADD18R,2.900000X4.400000*%
%ADD19R,1.440000X0.740000*%
%ADD20R,3.900000X3.900000*%
%ADD21O,1.910000X3.410000*%
%ADD22R,2.100000X2.100000*%
%ADD23O,2.100000X2.100000*%
%ADD24C,2.200000*%
%ADD25C,4.400000*%
%ADD26R,0.690000X1.640000*%
%ADD27R,1.900000X2.600000*%
%ADD28R,4.200000X2.600000*%
%ADD29R,8.275000X2.400000*%
%ADD30R,1.600000X0.700000*%
%ADD31R,0.700000X1.600000*%
%ADD32R,1.400000X1.650000*%
%ADD33R,1.650000X1.400000*%
%ADD34R,2.900000X2.700000*%
G04 APERTURE END LIST*
D10*
X203200000Y0D02*
X101600000Y0D01*
X203200000Y-101600000D02*
X203200000Y0D01*
X101600000Y-101600000D02*
X203200000Y-101600000D01*
X101600000Y0D02*
X0Y0D01*
X0Y-101600000D02*
X101600000Y-101600000D01*
X0Y0D02*
X0Y-101600000D01*
D11*
X139380000Y-83696000D03*
X139380000Y-85596000D03*
X137380000Y-84646000D03*
D12*
X157712000Y-27305000D03*
X161312000Y-27305000D03*
D13*
X59182000Y-25656000D03*
X59182000Y-22056000D03*
D12*
X59922000Y-6076000D03*
X63522000Y-6076000D03*
D14*
X152527000Y-21295000D03*
X152527000Y-25695000D03*
X146812000Y-21295000D03*
X146812000Y-25695000D03*
X50927000Y-21021000D03*
X50927000Y-25421000D03*
X44577000Y-21021000D03*
X44577000Y-25421000D03*
X45212000Y-8911000D03*
X45212000Y-4511000D03*
X50927000Y-8911000D03*
X50927000Y-4511000D03*
D15*
X142027000Y-17780000D03*
X137627000Y-17780000D03*
X39792000Y-17506000D03*
X35392000Y-17506000D03*
X55712000Y-11791000D03*
X60112000Y-11791000D03*
X157312000Y-17780000D03*
X161712000Y-17780000D03*
X55712000Y-17506000D03*
X60112000Y-17506000D03*
X39792000Y-11791000D03*
X35392000Y-11791000D03*
D16*
X103664000Y-20136000D03*
X105764000Y-20136000D03*
X97636000Y-5912000D03*
X95536000Y-5912000D03*
X103664000Y-5912000D03*
X105764000Y-5912000D03*
D15*
X109118000Y-16072000D03*
X113518000Y-16072000D03*
X92690000Y-10484000D03*
X88290000Y-10484000D03*
X109118000Y-10484000D03*
X113518000Y-10484000D03*
D13*
X139192000Y-3915000D03*
X139192000Y-7515000D03*
D14*
X146812000Y-8550000D03*
X146812000Y-4150000D03*
X152527000Y-8550000D03*
X152527000Y-4150000D03*
D15*
X157312000Y-12065000D03*
X161712000Y-12065000D03*
X142027000Y-12065000D03*
X137627000Y-12065000D03*
D16*
X97636000Y-20136000D03*
X95536000Y-20136000D03*
D15*
X92690000Y-16072000D03*
X88290000Y-16072000D03*
D17*
X103900000Y-27000000D03*
X110000000Y-27000000D03*
D12*
X6880000Y-25400000D03*
X3280000Y-25400000D03*
X6880000Y-40640000D03*
X3280000Y-40640000D03*
D17*
X137401000Y-96000000D03*
X143501000Y-96000000D03*
X97100000Y-97000000D03*
X91000000Y-97000000D03*
D18*
X148410000Y-48151000D03*
X148410000Y-42051000D03*
D17*
X125151000Y-96700000D03*
X119051000Y-96700000D03*
D18*
X158190000Y-48151000D03*
X158190000Y-42051000D03*
D17*
X168100000Y-97000000D03*
X162000000Y-97000000D03*
X154599000Y-89000000D03*
X148499000Y-89000000D03*
X111050000Y-97000000D03*
X104950000Y-97000000D03*
D16*
X141555000Y-87406000D03*
X141555000Y-89506000D03*
X163100000Y-83000000D03*
X161000000Y-83000000D03*
X155374000Y-63065000D03*
X155374000Y-60965000D03*
X193490000Y-68611000D03*
X195590000Y-68611000D03*
D14*
X143000000Y-80000000D03*
X143000000Y-84400000D03*
X167000000Y-78800000D03*
X167000000Y-83200000D03*
X152000000Y-70200000D03*
X152000000Y-65800000D03*
X190000000Y-72200000D03*
X190000000Y-67800000D03*
D15*
X29400000Y-94000000D03*
X25000000Y-94000000D03*
D14*
X66000000Y-83800000D03*
X66000000Y-88200000D03*
D15*
X113800000Y-88000000D03*
X118200000Y-88000000D03*
D14*
X190000000Y-82800000D03*
X190000000Y-87200000D03*
D15*
X113050000Y-82000000D03*
X117450000Y-82000000D03*
X113050000Y-76250000D03*
X117450000Y-76250000D03*
X113100000Y-70500000D03*
X117500000Y-70500000D03*
X113050000Y-64750000D03*
X117450000Y-64750000D03*
D16*
X98917245Y-51195723D03*
X96817245Y-51195723D03*
D14*
X79000000Y-93800000D03*
X79000000Y-98200000D03*
X94000000Y-59200000D03*
X94000000Y-54800000D03*
D18*
X89000000Y-72000000D03*
X89000000Y-78100000D03*
D14*
X140335000Y-61890000D03*
X140335000Y-57490000D03*
X37465000Y-62525000D03*
X37465000Y-58125000D03*
D16*
X144145000Y-68360000D03*
X144145000Y-66260000D03*
X41275000Y-68995000D03*
X41275000Y-66895000D03*
D15*
X141265000Y-71120000D03*
X136865000Y-71120000D03*
D18*
X46990000Y-63248000D03*
X46990000Y-57148000D03*
D14*
X64135000Y-61890000D03*
X64135000Y-57490000D03*
X165735000Y-64430000D03*
X165735000Y-60030000D03*
D16*
X60545000Y-69215000D03*
X62645000Y-69215000D03*
X169545000Y-70900000D03*
X169545000Y-68800000D03*
D14*
X66675000Y-73320000D03*
X66675000Y-68920000D03*
D15*
X166665000Y-73660000D03*
X162265000Y-73660000D03*
D16*
X59690000Y-95284000D03*
X59690000Y-93184000D03*
X36322000Y-95284000D03*
X36322000Y-93184000D03*
D19*
X110291885Y-49509077D03*
X108191885Y-48559077D03*
X108191885Y-50459077D03*
D20*
X10160000Y-10160000D03*
X10160000Y-4160000D03*
X5460000Y-7160000D03*
D21*
X73080000Y-96000000D03*
X70540000Y-96000000D03*
X68000000Y-96000000D03*
D22*
X60579000Y-85471000D03*
D23*
X60579000Y-82931000D03*
X60579000Y-80391000D03*
X60579000Y-77851000D03*
X60579000Y-75311000D03*
D19*
X166000000Y-87000000D03*
X168100000Y-87950000D03*
X168100000Y-86050000D03*
X152614000Y-57570000D03*
X150514000Y-56620000D03*
X150514000Y-58520000D03*
X191145000Y-62261000D03*
X189045000Y-61311000D03*
X189045000Y-63211000D03*
X142020000Y-66040000D03*
X139920000Y-65090000D03*
X139920000Y-66990000D03*
X39150000Y-66675000D03*
X37050000Y-65725000D03*
X37050000Y-67625000D03*
X62645000Y-66040000D03*
X60545000Y-65090000D03*
X60545000Y-66990000D03*
X167420000Y-68580000D03*
X165320000Y-67630000D03*
X165320000Y-69530000D03*
D16*
X148937000Y-28575000D03*
X151037000Y-28575000D03*
X46795000Y-28448000D03*
X48895000Y-28448000D03*
X54957000Y-4806000D03*
X57057000Y-4806000D03*
X142367000Y-21810000D03*
X142367000Y-23910000D03*
X40132000Y-21536000D03*
X40132000Y-23636000D03*
X54957000Y-7346000D03*
X57057000Y-7346000D03*
X156972000Y-21810000D03*
X156972000Y-23910000D03*
X55372000Y-22171000D03*
X55372000Y-24271000D03*
X40767000Y-7761000D03*
X40767000Y-5661000D03*
X165000000Y-18050000D03*
X165000000Y-15950000D03*
X133000000Y-7050000D03*
X133000000Y-4950000D03*
X63450000Y-17500000D03*
X65550000Y-17500000D03*
X32750000Y-17550000D03*
X32750000Y-15450000D03*
X35500000Y-7550000D03*
X35500000Y-5450000D03*
X63450000Y-11750000D03*
X65550000Y-11750000D03*
X101666000Y-20170000D03*
X101666000Y-18070000D03*
X99634000Y-5878000D03*
X99634000Y-7978000D03*
X101666000Y-5878000D03*
X101666000Y-7978000D03*
X103664000Y-18104000D03*
X105764000Y-18104000D03*
X97636000Y-7944000D03*
X95536000Y-7944000D03*
X103664000Y-7944000D03*
X105764000Y-7944000D03*
X116906000Y-14514000D03*
X116906000Y-16614000D03*
X85000000Y-8450000D03*
X85000000Y-10550000D03*
X116906000Y-12550000D03*
X116906000Y-10450000D03*
X150402000Y-1270000D03*
X148302000Y-1270000D03*
X156972000Y-7400000D03*
X156972000Y-5300000D03*
X143002000Y-7400000D03*
X143002000Y-5300000D03*
X135250000Y-7050000D03*
X135250000Y-4950000D03*
X165000000Y-12300000D03*
X165000000Y-10200000D03*
X99634000Y-20170000D03*
X99634000Y-18070000D03*
X97636000Y-18104000D03*
X95536000Y-18104000D03*
X85000000Y-18300000D03*
X85000000Y-16200000D03*
X114000000Y-58000000D03*
X114000000Y-60100000D03*
X114000000Y-53950000D03*
X114000000Y-56050000D03*
X58800000Y-41750000D03*
X58800000Y-43850000D03*
X56600000Y-43850000D03*
X56600000Y-41750000D03*
X143000000Y-48050000D03*
X143000000Y-45950000D03*
X158200000Y-54150000D03*
X158200000Y-56250000D03*
X148200000Y-94800000D03*
X148200000Y-96900000D03*
X154600000Y-94950000D03*
X154600000Y-97050000D03*
X133466000Y-95950000D03*
X133466000Y-98050000D03*
X101000000Y-96950000D03*
X101000000Y-99050000D03*
X158534000Y-89050000D03*
X158534000Y-86950000D03*
X115000000Y-96950000D03*
X115000000Y-99050000D03*
X149265000Y-52086000D03*
X151365000Y-52086000D03*
X129000000Y-97050000D03*
X129000000Y-94950000D03*
X159045000Y-52086000D03*
X161145000Y-52086000D03*
X172000000Y-96000000D03*
X172000000Y-98100000D03*
X143460000Y-89506000D03*
X143460000Y-87406000D03*
X159900000Y-79000000D03*
X162000000Y-79000000D03*
X152834000Y-60965000D03*
X152834000Y-63065000D03*
X195590000Y-66071000D03*
X193490000Y-66071000D03*
X136475000Y-89506000D03*
X136475000Y-87406000D03*
X160950000Y-87000000D03*
X163050000Y-87000000D03*
X155374000Y-52075000D03*
X155374000Y-54175000D03*
X196225000Y-61626000D03*
X194125000Y-61626000D03*
X139015000Y-89506000D03*
X139015000Y-87406000D03*
X160950000Y-85000000D03*
X163050000Y-85000000D03*
X155374000Y-58620000D03*
X155374000Y-56520000D03*
X195590000Y-71151000D03*
X193490000Y-71151000D03*
X149700000Y-83600000D03*
X151800000Y-83600000D03*
X146150000Y-71000000D03*
X148250000Y-71000000D03*
X156000000Y-68600000D03*
X156000000Y-70700000D03*
X138000000Y-78900000D03*
X138000000Y-81000000D03*
X109500000Y-79750000D03*
X109500000Y-77650000D03*
X109750000Y-73250000D03*
X109750000Y-71150000D03*
X109750000Y-68500000D03*
X109750000Y-66400000D03*
X109750000Y-64250000D03*
X109750000Y-62150000D03*
X101000000Y-49200000D03*
X101000000Y-51300000D03*
X98917245Y-49163723D03*
X96817245Y-49163723D03*
X83950000Y-98000000D03*
X86050000Y-98000000D03*
X60187245Y-53343723D03*
X60187245Y-51243723D03*
X58155245Y-51243723D03*
X58155245Y-53343723D03*
X108000000Y-55000000D03*
X108000000Y-57100000D03*
X104000000Y-61900000D03*
X104000000Y-64000000D03*
X106000000Y-61900000D03*
X106000000Y-64000000D03*
X95000000Y-52000000D03*
X92900000Y-52000000D03*
X110291885Y-52557077D03*
X108191885Y-52557077D03*
X100800000Y-64050000D03*
X100800000Y-61950000D03*
X89050000Y-82000000D03*
X86950000Y-82000000D03*
X135890000Y-60740000D03*
X135890000Y-58640000D03*
X33655000Y-62010000D03*
X33655000Y-59910000D03*
X144145000Y-63915000D03*
X144145000Y-61815000D03*
X137795000Y-64990000D03*
X137795000Y-67090000D03*
X41275000Y-64550000D03*
X41275000Y-62450000D03*
X34925000Y-65625000D03*
X34925000Y-67725000D03*
X60325000Y-62645000D03*
X60325000Y-60545000D03*
X161290000Y-63280000D03*
X161290000Y-61180000D03*
X64990000Y-66040000D03*
X67090000Y-66040000D03*
X58420000Y-64990000D03*
X58420000Y-67090000D03*
X169545000Y-66455000D03*
X169545000Y-64355000D03*
X163195000Y-67530000D03*
X163195000Y-69630000D03*
X49106800Y-89230200D03*
X47006800Y-89230200D03*
X26450000Y-20320000D03*
X24350000Y-20320000D03*
X77250000Y-20320000D03*
X75150000Y-20320000D03*
X128050000Y-20320000D03*
X125950000Y-20320000D03*
X178850000Y-20320000D03*
X176750000Y-20320000D03*
X34070000Y-38100000D03*
X31970000Y-38100000D03*
X84870000Y-38100000D03*
X82770000Y-38100000D03*
X135670000Y-38100000D03*
X133570000Y-38100000D03*
X186470000Y-38100000D03*
X184370000Y-38100000D03*
X26450000Y-73660000D03*
X24350000Y-73660000D03*
X77250000Y-73660000D03*
X75150000Y-73660000D03*
X128050000Y-73660000D03*
X125950000Y-73660000D03*
X179358000Y-73660000D03*
X177258000Y-73660000D03*
D24*
X116920000Y-35560000D03*
X119420000Y-35560000D03*
X121920000Y-35560000D03*
D25*
X115020000Y-28560000D03*
X123820000Y-28560000D03*
D24*
X15320000Y-35560000D03*
X17820000Y-35560000D03*
X20320000Y-35560000D03*
D25*
X13420000Y-28560000D03*
X22220000Y-28560000D03*
D24*
X66120000Y-35560000D03*
X68620000Y-35560000D03*
X71120000Y-35560000D03*
D25*
X64220000Y-28560000D03*
X73020000Y-28560000D03*
D24*
X167720000Y-35560000D03*
X170220000Y-35560000D03*
X172720000Y-35560000D03*
D25*
X165820000Y-28560000D03*
X174620000Y-28560000D03*
D24*
X22940000Y-88900000D03*
X25440000Y-88900000D03*
X27940000Y-88900000D03*
D25*
X21040000Y-81900000D03*
X29840000Y-81900000D03*
D24*
X73740000Y-88900000D03*
X76240000Y-88900000D03*
X78740000Y-88900000D03*
D25*
X71840000Y-81900000D03*
X80640000Y-81900000D03*
D24*
X124540000Y-88900000D03*
X127040000Y-88900000D03*
X129540000Y-88900000D03*
D25*
X122640000Y-81900000D03*
X131440000Y-81900000D03*
D24*
X175340000Y-88900000D03*
X177840000Y-88900000D03*
X180340000Y-88900000D03*
D25*
X173440000Y-81900000D03*
X182240000Y-81900000D03*
D24*
X99140000Y-81280000D03*
X101640000Y-81280000D03*
X104140000Y-81280000D03*
D25*
X97240000Y-74280000D03*
X106040000Y-74280000D03*
D24*
X132160000Y-53340000D03*
X134660000Y-53340000D03*
X137160000Y-53340000D03*
D25*
X130260000Y-46340000D03*
X139060000Y-46340000D03*
D24*
X30560000Y-53340000D03*
X33060000Y-53340000D03*
X35560000Y-53340000D03*
D25*
X28660000Y-46340000D03*
X37460000Y-46340000D03*
D24*
X116920000Y-53340000D03*
X119420000Y-53340000D03*
X121920000Y-53340000D03*
D25*
X115020000Y-46340000D03*
X123820000Y-46340000D03*
D24*
X15320000Y-53340000D03*
X17820000Y-53340000D03*
X20320000Y-53340000D03*
D25*
X13420000Y-46340000D03*
X22220000Y-46340000D03*
D24*
X81360000Y-53340000D03*
X83860000Y-53340000D03*
X86360000Y-53340000D03*
D25*
X79460000Y-46340000D03*
X88260000Y-46340000D03*
D24*
X182960000Y-53340000D03*
X185460000Y-53340000D03*
X187960000Y-53340000D03*
D25*
X181060000Y-46340000D03*
X189860000Y-46340000D03*
D24*
X66120000Y-53340000D03*
X68620000Y-53340000D03*
X71120000Y-53340000D03*
D25*
X64220000Y-46340000D03*
X73020000Y-46340000D03*
D24*
X167720000Y-53340000D03*
X170220000Y-53340000D03*
X172720000Y-53340000D03*
D25*
X165820000Y-46340000D03*
X174620000Y-46340000D03*
D24*
X22940000Y-17780000D03*
X25440000Y-17780000D03*
X27940000Y-17780000D03*
D25*
X21040000Y-10780000D03*
X29840000Y-10780000D03*
D24*
X73740000Y-17780000D03*
X76240000Y-17780000D03*
X78740000Y-17780000D03*
D25*
X71840000Y-10780000D03*
X80640000Y-10780000D03*
D24*
X124540000Y-17780000D03*
X127040000Y-17780000D03*
X129540000Y-17780000D03*
D25*
X122640000Y-10780000D03*
X131440000Y-10780000D03*
D24*
X175340000Y-17780000D03*
X177840000Y-17780000D03*
X180340000Y-17780000D03*
D25*
X173440000Y-10780000D03*
X182240000Y-10780000D03*
D24*
X30560000Y-35560000D03*
X33060000Y-35560000D03*
X35560000Y-35560000D03*
D25*
X28660000Y-28560000D03*
X37460000Y-28560000D03*
D24*
X81360000Y-35560000D03*
X83860000Y-35560000D03*
X86360000Y-35560000D03*
D25*
X79460000Y-28560000D03*
X88260000Y-28560000D03*
D24*
X132160000Y-35560000D03*
X134660000Y-35560000D03*
X137160000Y-35560000D03*
D25*
X130260000Y-28560000D03*
X139060000Y-28560000D03*
D24*
X182960000Y-35560000D03*
X185460000Y-35560000D03*
X187960000Y-35560000D03*
D25*
X181060000Y-28560000D03*
X189860000Y-28560000D03*
D24*
X22940000Y-71120000D03*
X25440000Y-71120000D03*
X27940000Y-71120000D03*
D25*
X21040000Y-64120000D03*
X29840000Y-64120000D03*
D24*
X73740000Y-71120000D03*
X76240000Y-71120000D03*
X78740000Y-71120000D03*
D25*
X71840000Y-64120000D03*
X80640000Y-64120000D03*
D24*
X124540000Y-71120000D03*
X127040000Y-71120000D03*
X129540000Y-71120000D03*
D25*
X122640000Y-64120000D03*
X131440000Y-64120000D03*
D24*
X175340000Y-71120000D03*
X177840000Y-71120000D03*
X180340000Y-71120000D03*
D25*
X173440000Y-64120000D03*
X182240000Y-64120000D03*
D26*
X153762000Y-17625000D03*
X152492000Y-17625000D03*
X151222000Y-17625000D03*
X149952000Y-17625000D03*
X148682000Y-17625000D03*
X147412000Y-17625000D03*
X146142000Y-17625000D03*
X146142000Y-12225000D03*
X147412000Y-12225000D03*
X148682000Y-12225000D03*
X149952000Y-12225000D03*
X151222000Y-12225000D03*
X152492000Y-12225000D03*
X153762000Y-12225000D03*
X51897000Y-17566000D03*
X50627000Y-17566000D03*
X49357000Y-17566000D03*
X48087000Y-17566000D03*
X46817000Y-17566000D03*
X45547000Y-17566000D03*
X44277000Y-17566000D03*
X44277000Y-12166000D03*
X45547000Y-12166000D03*
X46817000Y-12166000D03*
X48087000Y-12166000D03*
X49357000Y-12166000D03*
X50627000Y-12166000D03*
X51897000Y-12166000D03*
D27*
X7380000Y-29870000D03*
X5080000Y-29870000D03*
X2780000Y-29870000D03*
D28*
X5080000Y-36170000D03*
D26*
X156810000Y-79700000D03*
X155540000Y-79700000D03*
X154270000Y-79700000D03*
X153000000Y-79700000D03*
X151730000Y-79700000D03*
X150460000Y-79700000D03*
X149190000Y-79700000D03*
X149190000Y-74300000D03*
X150460000Y-74300000D03*
X151730000Y-74300000D03*
X153000000Y-74300000D03*
X154270000Y-74300000D03*
X155540000Y-74300000D03*
X156810000Y-74300000D03*
D29*
X53994300Y-94310200D03*
X42119300Y-94310200D03*
D26*
X96647000Y-10368000D03*
X97917000Y-10368000D03*
X99187000Y-10368000D03*
X100457000Y-10368000D03*
X101727000Y-10368000D03*
X102997000Y-10368000D03*
X104267000Y-10368000D03*
X104267000Y-15768000D03*
X102997000Y-15768000D03*
X101727000Y-15768000D03*
X100457000Y-15768000D03*
X99187000Y-15768000D03*
X97917000Y-15768000D03*
X96647000Y-15768000D03*
D30*
X52359000Y-76895000D03*
D31*
X42859000Y-74895000D03*
X43359000Y-74895000D03*
X43859000Y-74895000D03*
X44359000Y-74895000D03*
X44859000Y-74895000D03*
X45359000Y-74895000D03*
X45859000Y-74895000D03*
X46359000Y-74895000D03*
X46859000Y-74895000D03*
X47359000Y-74895000D03*
X47859000Y-74895000D03*
X48359000Y-74895000D03*
X48859000Y-74895000D03*
X49359000Y-74895000D03*
X49859000Y-74895000D03*
X50359000Y-74895000D03*
D30*
X52359000Y-77395000D03*
X52359000Y-77895000D03*
X52359000Y-78395000D03*
X52359000Y-78895000D03*
X52359000Y-79395000D03*
X52359000Y-79895000D03*
X52359000Y-80395000D03*
X52359000Y-80895000D03*
X52359000Y-81395000D03*
X52359000Y-81895000D03*
X52359000Y-82395000D03*
X52359000Y-82895000D03*
X52359000Y-83395000D03*
X52359000Y-83895000D03*
X52359000Y-84395000D03*
D31*
X50359000Y-86395000D03*
X49859000Y-86395000D03*
X49359000Y-86395000D03*
X48859000Y-86395000D03*
X48359000Y-86395000D03*
X47859000Y-86395000D03*
X47359000Y-86395000D03*
X46859000Y-86395000D03*
X46359000Y-86395000D03*
X45859000Y-86395000D03*
X45359000Y-86395000D03*
X44859000Y-86395000D03*
X44359000Y-86395000D03*
X43859000Y-86395000D03*
X43359000Y-86395000D03*
X42859000Y-86395000D03*
D30*
X40859000Y-84395000D03*
X40859000Y-83895000D03*
X40859000Y-83395000D03*
X40859000Y-82895000D03*
X40859000Y-82395000D03*
X40859000Y-81895000D03*
X40859000Y-81395000D03*
X40859000Y-80895000D03*
X40859000Y-80395000D03*
X40859000Y-79895000D03*
X40859000Y-79395000D03*
X40859000Y-78895000D03*
X40859000Y-78395000D03*
X40859000Y-77895000D03*
X40859000Y-77395000D03*
X40859000Y-76895000D03*
D26*
X106000000Y-59000000D03*
X104730000Y-59000000D03*
X103460000Y-59000000D03*
X102190000Y-59000000D03*
X100920000Y-59000000D03*
X99650000Y-59000000D03*
X98380000Y-59000000D03*
X98380000Y-53600000D03*
X99650000Y-53600000D03*
X100920000Y-53600000D03*
X102190000Y-53600000D03*
X103460000Y-53600000D03*
X104730000Y-53600000D03*
X106000000Y-53600000D03*
D32*
X48625000Y-69723000D03*
X46625000Y-69723000D03*
D33*
X36195000Y-81645000D03*
X36195000Y-79645000D03*
D32*
X48625000Y-71755000D03*
X46625000Y-71755000D03*
D33*
X38227000Y-81645000D03*
X38227000Y-79645000D03*
X36195000Y-83455000D03*
X36195000Y-85455000D03*
X55245000Y-81137000D03*
X55245000Y-79137000D03*
X38227000Y-83455000D03*
X38227000Y-85455000D03*
X57277000Y-81137000D03*
X57277000Y-79137000D03*
D32*
X42529000Y-88773000D03*
X40529000Y-88773000D03*
D16*
X38515000Y-88773000D03*
X36415000Y-88773000D03*
X3302000Y-48294000D03*
X3302000Y-46194000D03*
D34*
X5700000Y-17600000D03*
X10000000Y-17600000D03*
M02*
