M48
;DRILL file {KiCad 4.0.7} date 01/17/19 01:04:38
;FORMAT={-:-/ absolute / inch / decimal}
FMAT,2
INCH,TZ
T1C0.079
%
G90
G05
M72
T1
X0.5283Y-1.1244
X0.5283Y-1.8244
X0.8283Y-0.4244
X0.8283Y-2.5244
X0.8283Y-3.2244
X0.8748Y-1.1244
X0.8748Y-1.8244
X1.1283Y-1.1244
X1.1283Y-1.8244
X1.1748Y-0.4244
X1.1748Y-2.5244
X1.1748Y-3.2244
X1.4748Y-1.1244
X1.4748Y-1.8244
X2.5283Y-1.1244
X2.5283Y-1.8244
X2.8283Y-0.4244
X2.8283Y-2.5244
X2.8283Y-3.2244
X2.8748Y-1.1244
X2.8748Y-1.8244
X3.1283Y-1.1244
X3.1283Y-1.8244
X3.1748Y-0.4244
X3.1748Y-2.5244
X3.1748Y-3.2244
X3.4748Y-1.1244
X3.4748Y-1.8244
X3.8283Y-2.9244
X4.1748Y-2.9244
X4.5283Y-1.1244
X4.5283Y-1.8244
X4.8283Y-0.4244
X4.8283Y-2.5244
X4.8283Y-3.2244
X4.8748Y-1.1244
X4.8748Y-1.8244
X5.1283Y-1.1244
X5.1283Y-1.8244
X5.1748Y-0.4244
X5.1748Y-2.5244
X5.1748Y-3.2244
X5.4748Y-1.1244
X5.4748Y-1.8244
X6.5283Y-1.1244
X6.5283Y-1.8244
X6.8283Y-0.4244
X6.8283Y-2.5244
X6.8283Y-3.2244
X6.8748Y-1.1244
X6.8748Y-1.8244
X7.1283Y-1.1244
X7.1283Y-1.8244
X7.1748Y-0.4244
X7.1748Y-2.5244
X7.1748Y-3.2244
X7.4748Y-1.1244
X7.4748Y-1.8244
T0
M30
