G04 #@! TF.FileFunction,Legend,Bot*
%FSLAX46Y46*%
G04 Gerber Fmt 4.6, Leading zero omitted, Abs format (unit mm)*
G04 Created by KiCad (PCBNEW 4.0.7) date 02/28/19 19:32:36*
%MOMM*%
%LPD*%
G01*
G04 APERTURE LIST*
%ADD10C,0.100000*%
%ADD11C,0.203200*%
%ADD12C,0.063500*%
%ADD13C,0.152400*%
G04 APERTURE END LIST*
D10*
D11*
X65031620Y-63403480D02*
X51935380Y-63403480D01*
X51935380Y-63403480D02*
X51935380Y-55524400D01*
X51935380Y-52425600D02*
X51935380Y-47175420D01*
X51935380Y-47175420D02*
X65031620Y-47175420D01*
X65031620Y-47175420D02*
X65031620Y-52425600D01*
X65031620Y-55524400D02*
X65031620Y-63403480D01*
D12*
X60602840Y-53975000D02*
G75*
G03X60602840Y-53975000I-2119340J0D01*
G01*
D11*
X115069620Y-63339980D02*
X101973380Y-63339980D01*
X101973380Y-63339980D02*
X101973380Y-55460900D01*
X101973380Y-52362100D02*
X101973380Y-47111920D01*
X101973380Y-47111920D02*
X115069620Y-47111920D01*
X115069620Y-47111920D02*
X115069620Y-52362100D01*
X115069620Y-55460900D02*
X115069620Y-63339980D01*
D12*
X110640840Y-53911500D02*
G75*
G03X110640840Y-53911500I-2119340J0D01*
G01*
D11*
X145740120Y-63339980D02*
X132643880Y-63339980D01*
X132643880Y-63339980D02*
X132643880Y-55460900D01*
X132643880Y-52362100D02*
X132643880Y-47111920D01*
X132643880Y-47111920D02*
X145740120Y-47111920D01*
X145740120Y-47111920D02*
X145740120Y-52362100D01*
X145740120Y-55460900D02*
X145740120Y-63339980D01*
D12*
X141311340Y-53911500D02*
G75*
G03X141311340Y-53911500I-2119340J0D01*
G01*
D11*
X34361120Y-63339980D02*
X21264880Y-63339980D01*
X21264880Y-63339980D02*
X21264880Y-55460900D01*
X21264880Y-52362100D02*
X21264880Y-47111920D01*
X21264880Y-47111920D02*
X34361120Y-47111920D01*
X34361120Y-47111920D02*
X34361120Y-52362100D01*
X34361120Y-55460900D02*
X34361120Y-63339980D01*
D12*
X29932340Y-53911500D02*
G75*
G03X29932340Y-53911500I-2119340J0D01*
G01*
D13*
X56024780Y-49892373D02*
X55432114Y-49045707D01*
X55008780Y-49892373D02*
X55008780Y-48114373D01*
X55686114Y-48114373D01*
X55855447Y-48199040D01*
X55940114Y-48283707D01*
X56024780Y-48453040D01*
X56024780Y-48707040D01*
X55940114Y-48876373D01*
X55855447Y-48961040D01*
X55686114Y-49045707D01*
X55008780Y-49045707D01*
X56532780Y-48114373D02*
X57125447Y-49892373D01*
X57718114Y-48114373D01*
X59242114Y-49892373D02*
X58226114Y-49892373D01*
X58734114Y-49892373D02*
X58734114Y-48114373D01*
X58564780Y-48368373D01*
X58395447Y-48537707D01*
X58226114Y-48622373D01*
X60766113Y-48707040D02*
X60766113Y-49892373D01*
X60342780Y-48029707D02*
X59919447Y-49299707D01*
X61020113Y-49299707D01*
X52762573Y-59889813D02*
X52762573Y-58111813D01*
X53439907Y-58111813D01*
X53609240Y-58196480D01*
X53693907Y-58281147D01*
X53778573Y-58450480D01*
X53778573Y-58704480D01*
X53693907Y-58873813D01*
X53609240Y-58958480D01*
X53439907Y-59043147D01*
X52762573Y-59043147D01*
X54879240Y-58111813D02*
X55217907Y-58111813D01*
X55387240Y-58196480D01*
X55556573Y-58365813D01*
X55641240Y-58704480D01*
X55641240Y-59297147D01*
X55556573Y-59635813D01*
X55387240Y-59805147D01*
X55217907Y-59889813D01*
X54879240Y-59889813D01*
X54709907Y-59805147D01*
X54540573Y-59635813D01*
X54455907Y-59297147D01*
X54455907Y-58704480D01*
X54540573Y-58365813D01*
X54709907Y-58196480D01*
X54879240Y-58111813D01*
X56149240Y-58111813D02*
X57165240Y-58111813D01*
X56657240Y-59889813D02*
X56657240Y-58111813D01*
X57334574Y-60059147D02*
X58689241Y-60059147D01*
X59112574Y-59889813D02*
X59112574Y-58111813D01*
X59535908Y-58111813D01*
X59789908Y-58196480D01*
X59959241Y-58365813D01*
X60043908Y-58535147D01*
X60128574Y-58873813D01*
X60128574Y-59127813D01*
X60043908Y-59466480D01*
X59959241Y-59635813D01*
X59789908Y-59805147D01*
X59535908Y-59889813D01*
X59112574Y-59889813D01*
X60890574Y-58111813D02*
X60890574Y-59551147D01*
X60975241Y-59720480D01*
X61059908Y-59805147D01*
X61229241Y-59889813D01*
X61567908Y-59889813D01*
X61737241Y-59805147D01*
X61821908Y-59720480D01*
X61906574Y-59551147D01*
X61906574Y-58111813D01*
X62668575Y-59381813D02*
X63515241Y-59381813D01*
X62499241Y-59889813D02*
X63091908Y-58111813D01*
X63684575Y-59889813D01*
X65123908Y-59889813D02*
X64277241Y-59889813D01*
X64277241Y-58111813D01*
X106062780Y-49828873D02*
X105470114Y-48982207D01*
X105046780Y-49828873D02*
X105046780Y-48050873D01*
X105724114Y-48050873D01*
X105893447Y-48135540D01*
X105978114Y-48220207D01*
X106062780Y-48389540D01*
X106062780Y-48643540D01*
X105978114Y-48812873D01*
X105893447Y-48897540D01*
X105724114Y-48982207D01*
X105046780Y-48982207D01*
X106570780Y-48050873D02*
X107163447Y-49828873D01*
X107756114Y-48050873D01*
X109280114Y-49828873D02*
X108264114Y-49828873D01*
X108772114Y-49828873D02*
X108772114Y-48050873D01*
X108602780Y-48304873D01*
X108433447Y-48474207D01*
X108264114Y-48558873D01*
X110888780Y-48050873D02*
X110042113Y-48050873D01*
X109957447Y-48897540D01*
X110042113Y-48812873D01*
X110211447Y-48728207D01*
X110634780Y-48728207D01*
X110804113Y-48812873D01*
X110888780Y-48897540D01*
X110973447Y-49066873D01*
X110973447Y-49490207D01*
X110888780Y-49659540D01*
X110804113Y-49744207D01*
X110634780Y-49828873D01*
X110211447Y-49828873D01*
X110042113Y-49744207D01*
X109957447Y-49659540D01*
X102800573Y-59826313D02*
X102800573Y-58048313D01*
X103477907Y-58048313D01*
X103647240Y-58132980D01*
X103731907Y-58217647D01*
X103816573Y-58386980D01*
X103816573Y-58640980D01*
X103731907Y-58810313D01*
X103647240Y-58894980D01*
X103477907Y-58979647D01*
X102800573Y-58979647D01*
X104917240Y-58048313D02*
X105255907Y-58048313D01*
X105425240Y-58132980D01*
X105594573Y-58302313D01*
X105679240Y-58640980D01*
X105679240Y-59233647D01*
X105594573Y-59572313D01*
X105425240Y-59741647D01*
X105255907Y-59826313D01*
X104917240Y-59826313D01*
X104747907Y-59741647D01*
X104578573Y-59572313D01*
X104493907Y-59233647D01*
X104493907Y-58640980D01*
X104578573Y-58302313D01*
X104747907Y-58132980D01*
X104917240Y-58048313D01*
X106187240Y-58048313D02*
X107203240Y-58048313D01*
X106695240Y-59826313D02*
X106695240Y-58048313D01*
X107372574Y-59995647D02*
X108727241Y-59995647D01*
X109150574Y-59826313D02*
X109150574Y-58048313D01*
X109573908Y-58048313D01*
X109827908Y-58132980D01*
X109997241Y-58302313D01*
X110081908Y-58471647D01*
X110166574Y-58810313D01*
X110166574Y-59064313D01*
X110081908Y-59402980D01*
X109997241Y-59572313D01*
X109827908Y-59741647D01*
X109573908Y-59826313D01*
X109150574Y-59826313D01*
X110928574Y-58048313D02*
X110928574Y-59487647D01*
X111013241Y-59656980D01*
X111097908Y-59741647D01*
X111267241Y-59826313D01*
X111605908Y-59826313D01*
X111775241Y-59741647D01*
X111859908Y-59656980D01*
X111944574Y-59487647D01*
X111944574Y-58048313D01*
X112706575Y-59318313D02*
X113553241Y-59318313D01*
X112537241Y-59826313D02*
X113129908Y-58048313D01*
X113722575Y-59826313D01*
X115161908Y-59826313D02*
X114315241Y-59826313D01*
X114315241Y-58048313D01*
X136733280Y-49828873D02*
X136140614Y-48982207D01*
X135717280Y-49828873D02*
X135717280Y-48050873D01*
X136394614Y-48050873D01*
X136563947Y-48135540D01*
X136648614Y-48220207D01*
X136733280Y-48389540D01*
X136733280Y-48643540D01*
X136648614Y-48812873D01*
X136563947Y-48897540D01*
X136394614Y-48982207D01*
X135717280Y-48982207D01*
X137241280Y-48050873D02*
X137833947Y-49828873D01*
X138426614Y-48050873D01*
X139950614Y-49828873D02*
X138934614Y-49828873D01*
X139442614Y-49828873D02*
X139442614Y-48050873D01*
X139273280Y-48304873D01*
X139103947Y-48474207D01*
X138934614Y-48558873D01*
X141474613Y-48050873D02*
X141135947Y-48050873D01*
X140966613Y-48135540D01*
X140881947Y-48220207D01*
X140712613Y-48474207D01*
X140627947Y-48812873D01*
X140627947Y-49490207D01*
X140712613Y-49659540D01*
X140797280Y-49744207D01*
X140966613Y-49828873D01*
X141305280Y-49828873D01*
X141474613Y-49744207D01*
X141559280Y-49659540D01*
X141643947Y-49490207D01*
X141643947Y-49066873D01*
X141559280Y-48897540D01*
X141474613Y-48812873D01*
X141305280Y-48728207D01*
X140966613Y-48728207D01*
X140797280Y-48812873D01*
X140712613Y-48897540D01*
X140627947Y-49066873D01*
X133471073Y-59826313D02*
X133471073Y-58048313D01*
X134148407Y-58048313D01*
X134317740Y-58132980D01*
X134402407Y-58217647D01*
X134487073Y-58386980D01*
X134487073Y-58640980D01*
X134402407Y-58810313D01*
X134317740Y-58894980D01*
X134148407Y-58979647D01*
X133471073Y-58979647D01*
X135587740Y-58048313D02*
X135926407Y-58048313D01*
X136095740Y-58132980D01*
X136265073Y-58302313D01*
X136349740Y-58640980D01*
X136349740Y-59233647D01*
X136265073Y-59572313D01*
X136095740Y-59741647D01*
X135926407Y-59826313D01*
X135587740Y-59826313D01*
X135418407Y-59741647D01*
X135249073Y-59572313D01*
X135164407Y-59233647D01*
X135164407Y-58640980D01*
X135249073Y-58302313D01*
X135418407Y-58132980D01*
X135587740Y-58048313D01*
X136857740Y-58048313D02*
X137873740Y-58048313D01*
X137365740Y-59826313D02*
X137365740Y-58048313D01*
X138043074Y-59995647D02*
X139397741Y-59995647D01*
X139821074Y-59826313D02*
X139821074Y-58048313D01*
X140244408Y-58048313D01*
X140498408Y-58132980D01*
X140667741Y-58302313D01*
X140752408Y-58471647D01*
X140837074Y-58810313D01*
X140837074Y-59064313D01*
X140752408Y-59402980D01*
X140667741Y-59572313D01*
X140498408Y-59741647D01*
X140244408Y-59826313D01*
X139821074Y-59826313D01*
X141599074Y-58048313D02*
X141599074Y-59487647D01*
X141683741Y-59656980D01*
X141768408Y-59741647D01*
X141937741Y-59826313D01*
X142276408Y-59826313D01*
X142445741Y-59741647D01*
X142530408Y-59656980D01*
X142615074Y-59487647D01*
X142615074Y-58048313D01*
X143377075Y-59318313D02*
X144223741Y-59318313D01*
X143207741Y-59826313D02*
X143800408Y-58048313D01*
X144393075Y-59826313D01*
X145832408Y-59826313D02*
X144985741Y-59826313D01*
X144985741Y-58048313D01*
X25354280Y-49828873D02*
X24761614Y-48982207D01*
X24338280Y-49828873D02*
X24338280Y-48050873D01*
X25015614Y-48050873D01*
X25184947Y-48135540D01*
X25269614Y-48220207D01*
X25354280Y-48389540D01*
X25354280Y-48643540D01*
X25269614Y-48812873D01*
X25184947Y-48897540D01*
X25015614Y-48982207D01*
X24338280Y-48982207D01*
X25862280Y-48050873D02*
X26454947Y-49828873D01*
X27047614Y-48050873D01*
X28571614Y-49828873D02*
X27555614Y-49828873D01*
X28063614Y-49828873D02*
X28063614Y-48050873D01*
X27894280Y-48304873D01*
X27724947Y-48474207D01*
X27555614Y-48558873D01*
X29164280Y-48050873D02*
X30349613Y-48050873D01*
X29587613Y-49828873D01*
X22092073Y-59826313D02*
X22092073Y-58048313D01*
X22769407Y-58048313D01*
X22938740Y-58132980D01*
X23023407Y-58217647D01*
X23108073Y-58386980D01*
X23108073Y-58640980D01*
X23023407Y-58810313D01*
X22938740Y-58894980D01*
X22769407Y-58979647D01*
X22092073Y-58979647D01*
X24208740Y-58048313D02*
X24547407Y-58048313D01*
X24716740Y-58132980D01*
X24886073Y-58302313D01*
X24970740Y-58640980D01*
X24970740Y-59233647D01*
X24886073Y-59572313D01*
X24716740Y-59741647D01*
X24547407Y-59826313D01*
X24208740Y-59826313D01*
X24039407Y-59741647D01*
X23870073Y-59572313D01*
X23785407Y-59233647D01*
X23785407Y-58640980D01*
X23870073Y-58302313D01*
X24039407Y-58132980D01*
X24208740Y-58048313D01*
X25478740Y-58048313D02*
X26494740Y-58048313D01*
X25986740Y-59826313D02*
X25986740Y-58048313D01*
X26664074Y-59995647D02*
X28018741Y-59995647D01*
X28442074Y-59826313D02*
X28442074Y-58048313D01*
X28865408Y-58048313D01*
X29119408Y-58132980D01*
X29288741Y-58302313D01*
X29373408Y-58471647D01*
X29458074Y-58810313D01*
X29458074Y-59064313D01*
X29373408Y-59402980D01*
X29288741Y-59572313D01*
X29119408Y-59741647D01*
X28865408Y-59826313D01*
X28442074Y-59826313D01*
X30220074Y-58048313D02*
X30220074Y-59487647D01*
X30304741Y-59656980D01*
X30389408Y-59741647D01*
X30558741Y-59826313D01*
X30897408Y-59826313D01*
X31066741Y-59741647D01*
X31151408Y-59656980D01*
X31236074Y-59487647D01*
X31236074Y-58048313D01*
X31998075Y-59318313D02*
X32844741Y-59318313D01*
X31828741Y-59826313D02*
X32421408Y-58048313D01*
X33014075Y-59826313D01*
X34453408Y-59826313D02*
X33606741Y-59826313D01*
X33606741Y-58048313D01*
M02*
