M48
;DRILL file {KiCad 4.0.7} date 02/28/19 19:32:41
;FORMAT={-:-/ absolute / inch / decimal}
FMAT,2
INCH,TZ
T1C0.079
%
G90
G05
M72
T1
X0.9218Y-0.5044
X0.9218Y-1.3244
X0.9218Y-2.9694
X0.9218Y-3.7944
X0.9218Y-5.1094
X1.2682Y-0.5044
X1.2682Y-1.3244
X1.2682Y-2.9694
X1.2682Y-3.7944
X1.2682Y-5.1094
X2.1243Y-3.7944
X2.1268Y-0.5094
X2.1268Y-1.3194
X2.1268Y-2.9719
X2.1318Y-5.1069
X2.4707Y-3.7944
X2.4732Y-0.5094
X2.4732Y-1.3194
X2.4732Y-2.9719
X2.4782Y-5.1069
X3.1093Y-1.6544
X3.1093Y-2.6444
X3.1118Y-4.6094
X3.1135Y-3.6194
X3.1168Y-0.6144
X3.4557Y-1.6544
X3.4557Y-2.6444
X3.4582Y-4.6094
X3.46Y-3.6194
X3.4632Y-0.6144
X4.0918Y-1.3294
X4.0968Y-0.5094
X4.0968Y-5.1044
X4.1068Y-2.9644
X4.1068Y-3.7919
X4.4382Y-1.3294
X4.4432Y-0.5094
X4.4432Y-5.1044
X4.4532Y-2.9644
X4.4532Y-3.7919
X5.3018Y-0.5094
X5.3018Y-1.3294
X5.3018Y-2.9644
X5.3018Y-3.7919
X5.3018Y-5.1044
X5.6482Y-0.5094
X5.6482Y-1.3294
X5.6482Y-2.9644
X5.6482Y-3.7919
X5.6482Y-5.1044
T0
M30
