M48
;DRILL file {KiCad 4.0.7} date 02/28/19 19:32:41
;FORMAT={-:-/ absolute / inch / decimal}
FMAT,2
INCH,TZ
T1C0.016
T2C0.031
T3C0.035
T4C0.039
T5C0.083
T6C0.120
%
G90
G05
M72
T1
X1.7425Y-4.95
X1.7425Y-5.05
X2.Y-5.52
X2.165Y-4.18
X2.495Y-4.305
X2.5925Y-4.185
X2.6Y-0.775
X2.6Y-1.64
X2.7Y-5.35
X2.74Y-5.39
X2.765Y-5.46
X2.77Y-3.2
X2.77Y-3.62
X2.77Y-4.42
X2.7753Y-4.2508
X4.08Y-4.87
X4.09Y-5.52
X4.1575Y-4.1775
X4.19Y-4.79
X4.25Y-5.51
X4.5525Y-5.9625
X4.9125Y-5.8075
X5.02Y-4.72
X5.76Y-0.98
X5.92Y-1.82
X5.98Y-4.1825
T2
X3.9031Y-6.02
X4.1Y-6.02
T3
X0.8982Y-2.5555
X0.9769Y-2.5555
X1.0557Y-2.5555
X1.1343Y-2.5555
X1.2131Y-2.5555
X1.2918Y-2.5555
X2.1057Y-2.558
X2.1844Y-2.558
X2.2632Y-2.558
X2.3418Y-2.558
X2.4206Y-2.558
X2.4993Y-2.558
X4.0757Y-2.5555
X4.1544Y-2.5555
X4.2332Y-2.5555
X4.3118Y-2.5555
X4.3906Y-2.5555
X4.4693Y-2.5555
X5.2832Y-2.5555
X5.3619Y-2.5555
X5.4407Y-2.5555
X5.5193Y-2.5555
X5.5981Y-2.5555
X5.6768Y-2.5555
T4
X0.9966Y-0.78
X0.9966Y-1.6
X0.9966Y-3.245
X0.9966Y-4.07
X0.9966Y-5.385
X1.095Y-0.78
X1.095Y-1.6
X1.095Y-3.245
X1.095Y-4.07
X1.095Y-5.385
X1.175Y-1.8475
X1.1934Y-0.78
X1.1934Y-1.6
X1.1934Y-3.245
X1.1934Y-4.07
X1.1934Y-5.385
X1.275Y-1.8475
X1.375Y-1.8475
X1.475Y-1.8475
X1.575Y-1.8475
X2.125Y-1.8475
X2.1991Y-4.07
X2.2016Y-0.785
X2.2016Y-1.595
X2.2016Y-3.2475
X2.2066Y-5.3825
X2.225Y-1.8475
X2.2975Y-4.07
X2.3Y-0.785
X2.3Y-1.595
X2.3Y-3.2475
X2.305Y-5.3825
X2.325Y-1.8475
X2.3959Y-4.07
X2.3984Y-0.785
X2.3984Y-1.595
X2.3984Y-3.2475
X2.4034Y-5.3825
X2.425Y-1.8475
X2.525Y-1.8475
X2.7Y-5.6
X2.7Y-5.7
X2.8Y-5.6
X2.8Y-5.7
X2.85Y-4.55
X2.85Y-4.65
X2.85Y-4.75
X2.85Y-4.85
X2.85Y-4.95
X2.85Y-5.05
X2.85Y-5.15
X2.85Y-5.25
X2.9Y-5.6
X2.9Y-5.7
X3.Y-5.6
X3.Y-5.7
X3.1Y-5.6
X3.1Y-5.7
X3.1841Y-1.93
X3.1841Y-2.92
X3.185Y-5.175
X3.1866Y-4.885
X3.1883Y-3.895
X3.1916Y-0.89
X3.2Y-5.6
X3.2Y-5.7
X3.2825Y-1.93
X3.2825Y-2.92
X3.285Y-4.885
X3.285Y-5.175
X3.2868Y-3.895
X3.29Y-0.89
X3.3Y-5.6
X3.3Y-5.7
X3.3809Y-1.93
X3.3809Y-2.92
X3.3834Y-4.885
X3.385Y-5.175
X3.3852Y-3.895
X3.3884Y-0.89
X3.4Y-5.6
X3.4Y-5.7
X3.5Y-5.6
X3.5Y-5.7
X3.6Y-5.6
X3.6Y-5.7
X3.7Y-5.6
X3.7Y-5.7
X3.7325Y-4.55
X3.7325Y-4.65
X3.7325Y-4.75
X3.7325Y-4.85
X3.7325Y-4.95
X3.7325Y-5.05
X3.7325Y-5.15
X3.7325Y-5.25
X3.8Y-5.6
X3.8Y-5.7
X3.9Y-5.6
X3.9Y-5.7
X4.Y-1.8475
X4.1Y-1.8475
X4.1Y-5.6
X4.1Y-5.7
X4.1666Y-1.605
X4.1716Y-0.785
X4.1716Y-5.38
X4.1816Y-3.24
X4.1816Y-4.0675
X4.2Y-1.8475
X4.2Y-5.6
X4.2Y-5.7
X4.265Y-1.605
X4.27Y-0.785
X4.27Y-5.38
X4.28Y-3.24
X4.28Y-4.0675
X4.3Y-1.8475
X4.3Y-5.6
X4.3Y-5.7
X4.3634Y-1.605
X4.3684Y-0.785
X4.3684Y-5.38
X4.3784Y-3.24
X4.3784Y-4.0675
X4.4Y-1.8475
X4.4Y-5.6
X4.4Y-5.7
X4.5Y-5.6
X4.5Y-5.7
X4.6Y-5.6
X4.6Y-5.7
X4.7Y-5.6
X4.7Y-5.7
X4.8Y-5.6
X4.8Y-5.7
X4.9Y-5.6
X4.9Y-5.7
X4.925Y-1.8475
X5.Y-5.6
X5.Y-5.7
X5.025Y-1.8475
X5.1Y-5.6
X5.1Y-5.7
X5.125Y-1.8475
X5.2Y-5.6
X5.2Y-5.7
X5.225Y-1.8475
X5.3Y-5.6
X5.3Y-5.7
X5.325Y-1.8475
X5.3766Y-0.785
X5.3766Y-1.605
X5.3766Y-3.24
X5.3766Y-4.0675
X5.3766Y-5.38
X5.475Y-0.785
X5.475Y-1.605
X5.475Y-3.24
X5.475Y-4.0675
X5.475Y-5.38
X5.5734Y-0.785
X5.5734Y-1.605
X5.5734Y-3.24
X5.5734Y-4.0675
X5.5734Y-5.38
T5
X0.8588Y-2.1225
X1.3312Y-2.1225
X2.0663Y-2.125
X2.5387Y-2.125
X4.0363Y-2.1225
X4.5087Y-2.1225
X5.2438Y-2.1225
X5.7162Y-2.1225
T6
X0.5Y-0.5
X0.5Y-3.
X0.5Y-5.5
X1.1Y-5.7
X1.66Y-1.
X5.2Y-1.
X5.525Y-5.7
X6.Y-0.5
X6.Y-3.
X6.Y-5.5
T4
X0.3455Y-5.865G85X0.4045Y-5.865
G05
X0.3455Y-6.05G85X0.4045Y-6.05
G05
X0.3455Y-6.235G85X0.4045Y-6.235
G05
X0.5885Y-4.331G85X0.6475Y-4.331
G05
X0.5885Y-4.516G85X0.6475Y-4.516
G05
X0.5885Y-4.701G85X0.6475Y-4.701
G05
X1.098Y-4.3325G85X1.157Y-4.3325
G05
X1.098Y-4.5175G85X1.157Y-4.5175
G05
X1.098Y-4.7025G85X1.157Y-4.7025
G05
X1.8205Y-4.333G85X1.8795Y-4.333
G05
X1.8205Y-4.518G85X1.8795Y-4.518
G05
X1.8205Y-4.703G85X1.8795Y-4.703
G05
X1.9255Y-5.87G85X1.9845Y-5.87
G05
X1.9255Y-6.055G85X1.9845Y-6.055
G05
X1.9255Y-6.24G85X1.9845Y-6.24
G05
X2.3285Y-4.333G85X2.3875Y-4.333
G05
X2.3285Y-4.518G85X2.3875Y-4.518
G05
X2.3285Y-4.703G85X2.3875Y-4.703
G05
X3.1Y-5.442G85X3.1Y-5.383
G05
X3.285Y-5.442G85X3.285Y-5.383
G05
X3.47Y-5.442G85X3.47Y-5.383
G05
X4.1785Y-4.329G85X4.2375Y-4.329
G05
X4.1785Y-4.514G85X4.2375Y-4.514
G05
X4.1785Y-4.699G85X4.2375Y-4.699
G05
X4.5955Y-5.875G85X4.6545Y-5.875
G05
X4.5955Y-6.06G85X4.6545Y-6.06
G05
X4.5955Y-6.245G85X4.6545Y-6.245
G05
X4.6885Y-4.333G85X4.7475Y-4.333
G05
X4.6885Y-4.518G85X4.7475Y-4.518
G05
X4.6885Y-4.703G85X4.7475Y-4.703
G05
X5.4045Y-4.331G85X5.4635Y-4.331
G05
X5.4045Y-4.516G85X5.4635Y-4.516
G05
X5.4045Y-4.701G85X5.4635Y-4.701
G05
X5.9205Y-4.33G85X5.9795Y-4.33
G05
X5.9205Y-4.515G85X5.9795Y-4.515
G05
X5.9205Y-4.7G85X5.9795Y-4.7
G05
X6.1755Y-5.87G85X6.2345Y-5.87
G05
X6.1755Y-6.055G85X6.2345Y-6.055
G05
X6.1755Y-6.24G85X6.2345Y-6.24
G05
T0
M30
