G04 #@! TF.FileFunction,Soldermask,Top*
%FSLAX46Y46*%
G04 Gerber Fmt 4.6, Leading zero omitted, Abs format (unit mm)*
G04 Created by KiCad (PCBNEW 4.0.7) date 02/28/19 19:32:10*
%MOMM*%
%LPD*%
G01*
G04 APERTURE LIST*
%ADD10C,0.100000*%
%ADD11C,4.464000*%
%ADD12C,2.200000*%
%ADD13C,4.400000*%
%ADD14R,2.100000X2.100000*%
%ADD15O,2.100000X2.100000*%
%ADD16R,1.600000X1.600000*%
%ADD17O,1.807160X3.214320*%
%ADD18C,3.514040*%
%ADD19R,2.000000X2.000000*%
%ADD20C,2.000000*%
%ADD21O,4.400000X2.400000*%
%ADD22O,2.400000X4.400000*%
G04 APERTURE END LIST*
D10*
D11*
X42164000Y-25400000D03*
X132080000Y-25400000D03*
X140335000Y-144780000D03*
X27940000Y-144780000D03*
X152400000Y-139700000D03*
X152400000Y-76200000D03*
X152400000Y-12700000D03*
X12700000Y-76200000D03*
X12700000Y-139700000D03*
X12700000Y-12700000D03*
D12*
X25313000Y-103378000D03*
X27813000Y-103378000D03*
X30313000Y-103378000D03*
D13*
X23413000Y-96378000D03*
X32213000Y-96378000D03*
D12*
X56047000Y-136715500D03*
X58547000Y-136715500D03*
X61047000Y-136715500D03*
D13*
X54147000Y-129715500D03*
X62947000Y-129715500D03*
D12*
X136565000Y-19939000D03*
X139065000Y-19939000D03*
X141565000Y-19939000D03*
D13*
X134665000Y-12939000D03*
X143465000Y-12939000D03*
D12*
X25313000Y-19812000D03*
X27813000Y-19812000D03*
X30313000Y-19812000D03*
D13*
X23413000Y-12812000D03*
X32213000Y-12812000D03*
D12*
X55920000Y-19939000D03*
X58420000Y-19939000D03*
X60920000Y-19939000D03*
D13*
X54020000Y-12939000D03*
X62820000Y-12939000D03*
D12*
X105958000Y-19939000D03*
X108458000Y-19939000D03*
X110958000Y-19939000D03*
D13*
X104058000Y-12939000D03*
X112858000Y-12939000D03*
D12*
X80939000Y-124079000D03*
X83439000Y-124079000D03*
X85939000Y-124079000D03*
D13*
X79039000Y-117079000D03*
X87839000Y-117079000D03*
D12*
X25313000Y-40640000D03*
X27813000Y-40640000D03*
X30313000Y-40640000D03*
D13*
X23413000Y-33640000D03*
X32213000Y-33640000D03*
D12*
X55920000Y-40513000D03*
X58420000Y-40513000D03*
X60920000Y-40513000D03*
D13*
X54020000Y-33513000D03*
X62820000Y-33513000D03*
D12*
X105831000Y-40767000D03*
X108331000Y-40767000D03*
X110831000Y-40767000D03*
D13*
X103931000Y-33767000D03*
X112731000Y-33767000D03*
D12*
X136565000Y-40767000D03*
X139065000Y-40767000D03*
X141565000Y-40767000D03*
D13*
X134665000Y-33767000D03*
X143465000Y-33767000D03*
D12*
X55856500Y-103378000D03*
X58356500Y-103378000D03*
X60856500Y-103378000D03*
D13*
X53956500Y-96378000D03*
X62756500Y-96378000D03*
D12*
X106212000Y-103314500D03*
X108712000Y-103314500D03*
X111212000Y-103314500D03*
D13*
X104312000Y-96314500D03*
X113112000Y-96314500D03*
D12*
X136565000Y-103314500D03*
X139065000Y-103314500D03*
X141565000Y-103314500D03*
D13*
X134665000Y-96314500D03*
X143465000Y-96314500D03*
D14*
X80899000Y-131445000D03*
D15*
X83439000Y-131445000D03*
X85979000Y-131445000D03*
D12*
X25313000Y-136779000D03*
X27813000Y-136779000D03*
X30313000Y-136779000D03*
D13*
X23413000Y-129779000D03*
X32213000Y-129779000D03*
D12*
X105958000Y-136652000D03*
X108458000Y-136652000D03*
X110958000Y-136652000D03*
D13*
X104058000Y-129652000D03*
X112858000Y-129652000D03*
D12*
X136565000Y-136652000D03*
X139065000Y-136652000D03*
X141565000Y-136652000D03*
D13*
X134665000Y-129652000D03*
X143465000Y-129652000D03*
D12*
X25313000Y-82423000D03*
X27813000Y-82423000D03*
X30313000Y-82423000D03*
D13*
X23413000Y-75423000D03*
X32213000Y-75423000D03*
D12*
X55920000Y-82486500D03*
X58420000Y-82486500D03*
X60920000Y-82486500D03*
D13*
X54020000Y-75486500D03*
X62820000Y-75486500D03*
D12*
X106212000Y-82296000D03*
X108712000Y-82296000D03*
X111212000Y-82296000D03*
D13*
X104312000Y-75296000D03*
X113112000Y-75296000D03*
D12*
X136565000Y-82296000D03*
X139065000Y-82296000D03*
X141565000Y-82296000D03*
D13*
X134665000Y-75296000D03*
X143465000Y-75296000D03*
D14*
X40005000Y-46926500D03*
D15*
X37465000Y-46926500D03*
X34925000Y-46926500D03*
X32385000Y-46926500D03*
X29845000Y-46926500D03*
D14*
X64135000Y-46926500D03*
D15*
X61595000Y-46926500D03*
X59055000Y-46926500D03*
X56515000Y-46926500D03*
X53975000Y-46926500D03*
D14*
X111760000Y-46926500D03*
D15*
X109220000Y-46926500D03*
X106680000Y-46926500D03*
X104140000Y-46926500D03*
X101600000Y-46926500D03*
D14*
X135255000Y-46926500D03*
D15*
X132715000Y-46926500D03*
X130175000Y-46926500D03*
X127635000Y-46926500D03*
X125095000Y-46926500D03*
D14*
X94805500Y-115570000D03*
D15*
X94805500Y-118110000D03*
X94805500Y-120650000D03*
X94805500Y-123190000D03*
X94805500Y-125730000D03*
X94805500Y-128270000D03*
X94805500Y-130810000D03*
X94805500Y-133350000D03*
D12*
X80875500Y-49022000D03*
X83375500Y-49022000D03*
X85875500Y-49022000D03*
D13*
X78975500Y-42022000D03*
X87775500Y-42022000D03*
D12*
X80875500Y-74168000D03*
X83375500Y-74168000D03*
X85875500Y-74168000D03*
D13*
X78975500Y-67168000D03*
X87775500Y-67168000D03*
D12*
X80984000Y-98933000D03*
X83484000Y-98933000D03*
X85984000Y-98933000D03*
D13*
X79084000Y-91933000D03*
X87884000Y-91933000D03*
D14*
X99060000Y-142240000D03*
D15*
X99060000Y-144780000D03*
X96520000Y-142240000D03*
X96520000Y-144780000D03*
X93980000Y-142240000D03*
X93980000Y-144780000D03*
X91440000Y-142240000D03*
X91440000Y-144780000D03*
X88900000Y-142240000D03*
X88900000Y-144780000D03*
X86360000Y-142240000D03*
X86360000Y-144780000D03*
X83820000Y-142240000D03*
X83820000Y-144780000D03*
X81280000Y-142240000D03*
X81280000Y-144780000D03*
X78740000Y-142240000D03*
X78740000Y-144780000D03*
X76200000Y-142240000D03*
X76200000Y-144780000D03*
X73660000Y-142240000D03*
X73660000Y-144780000D03*
X71120000Y-142240000D03*
X71120000Y-144780000D03*
X68580000Y-142240000D03*
X68580000Y-144780000D03*
D14*
X134620000Y-142240000D03*
D15*
X134620000Y-144780000D03*
X132080000Y-142240000D03*
X132080000Y-144780000D03*
X129540000Y-142240000D03*
X129540000Y-144780000D03*
X127000000Y-142240000D03*
X127000000Y-144780000D03*
X124460000Y-142240000D03*
X124460000Y-144780000D03*
X121920000Y-142240000D03*
X121920000Y-144780000D03*
X119380000Y-142240000D03*
X119380000Y-144780000D03*
X116840000Y-142240000D03*
X116840000Y-144780000D03*
X114300000Y-142240000D03*
X114300000Y-144780000D03*
X111760000Y-142240000D03*
X111760000Y-144780000D03*
X109220000Y-142240000D03*
X109220000Y-144780000D03*
X106680000Y-142240000D03*
X106680000Y-144780000D03*
X104140000Y-142240000D03*
X104140000Y-144780000D03*
D12*
X81066000Y-22606000D03*
X83566000Y-22606000D03*
X86066000Y-22606000D03*
D13*
X79166000Y-15606000D03*
X87966000Y-15606000D03*
D16*
X85911000Y-29654500D03*
X88011000Y-29654500D03*
X88079000Y-26479500D03*
X85979000Y-26479500D03*
D17*
X55483760Y-64973200D03*
X53484780Y-64973200D03*
X63482220Y-64973200D03*
X57485280Y-64973200D03*
X59481720Y-64973200D03*
X61483240Y-64973200D03*
D18*
X52484020Y-53975000D03*
X64482980Y-53975000D03*
D17*
X105521760Y-64909700D03*
X103522780Y-64909700D03*
X113520220Y-64909700D03*
X107523280Y-64909700D03*
X109519720Y-64909700D03*
X111521240Y-64909700D03*
D18*
X102522020Y-53911500D03*
X114520980Y-53911500D03*
D17*
X136192260Y-64909700D03*
X134193280Y-64909700D03*
X144190720Y-64909700D03*
X138193780Y-64909700D03*
X140190220Y-64909700D03*
X142191740Y-64909700D03*
D18*
X133192520Y-53911500D03*
X145191480Y-53911500D03*
D17*
X24813260Y-64909700D03*
X22814280Y-64909700D03*
X32811720Y-64909700D03*
X26814780Y-64909700D03*
X28811220Y-64909700D03*
X30812740Y-64909700D03*
D18*
X21813520Y-53911500D03*
X33812480Y-53911500D03*
D19*
X99140000Y-152908000D03*
D20*
X104140000Y-152908000D03*
D16*
X56320000Y-23495000D03*
X58420000Y-23495000D03*
X139192000Y-24960000D03*
X139192000Y-22860000D03*
X25840000Y-23495000D03*
X27940000Y-23495000D03*
X106612000Y-23368000D03*
X108712000Y-23368000D03*
X55880000Y-43180000D03*
X57980000Y-43180000D03*
X139065000Y-46355000D03*
X139065000Y-44255000D03*
X25840000Y-43815000D03*
X27940000Y-43815000D03*
X106045000Y-43815000D03*
X108145000Y-43815000D03*
X56515000Y-106299000D03*
X58615000Y-106299000D03*
X136872000Y-106045000D03*
X138972000Y-106045000D03*
X25493000Y-106045000D03*
X27593000Y-106045000D03*
X106773000Y-106172000D03*
X108873000Y-106172000D03*
X63695000Y-23495000D03*
X61595000Y-23495000D03*
X52070000Y-23495000D03*
X54170000Y-23495000D03*
X141605000Y-24960000D03*
X141605000Y-22860000D03*
X136525000Y-22860000D03*
X136525000Y-24960000D03*
X32800000Y-23495000D03*
X30700000Y-23495000D03*
X21590000Y-23495000D03*
X23690000Y-23495000D03*
X113225000Y-23368000D03*
X111125000Y-23368000D03*
X102040000Y-23368000D03*
X104140000Y-23368000D03*
X62865000Y-43180000D03*
X60765000Y-43180000D03*
X51308000Y-43180000D03*
X53408000Y-43180000D03*
X141732000Y-46296000D03*
X141732000Y-44196000D03*
X130810000Y-40640000D03*
X128710000Y-40640000D03*
X32385000Y-43815000D03*
X30285000Y-43815000D03*
X20955000Y-43815000D03*
X23055000Y-43815000D03*
X113445000Y-43815000D03*
X111345000Y-43815000D03*
X101092000Y-43688000D03*
X103192000Y-43688000D03*
X63500000Y-106426000D03*
X61400000Y-106426000D03*
X51528000Y-106299000D03*
X53628000Y-106299000D03*
X143925000Y-106045000D03*
X141825000Y-106045000D03*
X132300000Y-106045000D03*
X134400000Y-106045000D03*
X32385000Y-106172000D03*
X30285000Y-106172000D03*
X20286000Y-106045000D03*
X22386000Y-106045000D03*
X113665000Y-106172000D03*
X111565000Y-106172000D03*
X102235000Y-106172000D03*
X104335000Y-106172000D03*
D14*
X72390000Y-115570000D03*
D15*
X72390000Y-118110000D03*
X72390000Y-120650000D03*
X72390000Y-123190000D03*
X72390000Y-125730000D03*
X72390000Y-128270000D03*
X72390000Y-130810000D03*
X72390000Y-133350000D03*
D21*
X157607000Y-149097000D03*
X157607000Y-153797000D03*
X157607000Y-158497000D03*
X117475000Y-149224000D03*
X117475000Y-153924000D03*
X117475000Y-158624000D03*
X49657000Y-149097000D03*
X49657000Y-153797000D03*
X49657000Y-158497000D03*
X9525000Y-148970000D03*
X9525000Y-153670000D03*
X9525000Y-158370000D03*
D22*
X78739000Y-137477500D03*
X83439000Y-137477500D03*
X88139000Y-137477500D03*
D21*
X15697200Y-110006400D03*
X15697200Y-114706400D03*
X15697200Y-119406400D03*
X46990000Y-110057200D03*
X46990000Y-114757200D03*
X46990000Y-119457200D03*
X106883200Y-109955600D03*
X106883200Y-114655600D03*
X106883200Y-119355600D03*
X138023600Y-110006400D03*
X138023600Y-114706400D03*
X138023600Y-119406400D03*
X28638500Y-110044500D03*
X28638500Y-114744500D03*
X28638500Y-119444500D03*
X59893200Y-110057200D03*
X59893200Y-114757200D03*
X59893200Y-119457200D03*
X119837200Y-110057200D03*
X119837200Y-114757200D03*
X119837200Y-119457200D03*
X151130000Y-109981000D03*
X151130000Y-114681000D03*
X151130000Y-119381000D03*
M02*
